<?xml version="1.0" encoding="UTF-8" standalone="no"?>
<svg
   xmlns:dc="http://purl.org/dc/elements/1.1/"
   xmlns:cc="http://creativecommons.org/ns#"
   xmlns:rdf="http://www.w3.org/1999/02/22-rdf-syntax-ns#"
   xmlns:svg="http://www.w3.org/2000/svg"
   xmlns="http://www.w3.org/2000/svg"
   xmlns:sodipodi="http://sodipodi.sourceforge.net/DTD/sodipodi-0.dtd"
   xmlns:inkscape="http://www.inkscape.org/namespaces/inkscape"
   width="64"
   height="64"
   viewBox="0 0 16.933333 16.933334"
   version="1.1"
   id="svg8"
   inkscape:version="0.92.3 (2405546, 2018-03-11)"
   sodipodi:docname="11-Sollution.svg"
   inkscape:export-filename="/home/wanzabuyumna/@WANZ_DESIGN/NICON STUDIO MAGANG/Style Line/Style Line/Icon 8/Icon 8.png"
   inkscape:export-xdpi="96"
   inkscape:export-ydpi="96">
  <defs
     id="defs2" />
  <sodipodi:namedview
     id="base"
     pagecolor="#ffffff"
     bordercolor="#959595"
     borderopacity="1"
     inkscape:pageopacity="0"
     inkscape:pageshadow="2"
     inkscape:zoom="8"
     inkscape:cx="31.107618"
     inkscape:cy="31.424765"
     inkscape:document-units="px"
     inkscape:current-layer="layer1"
     inkscape:document-rotation="0"
     showgrid="false"
     units="px"
     inkscape:window-width="1920"
     inkscape:window-height="1040"
     inkscape:window-x="0"
     inkscape:window-y="0"
     inkscape:window-maximized="1"
     inkscape:pagecheckerboard="0" />
  <metadata
     id="metadata5">
    <rdf:RDF>
      <cc:Work
         rdf:about="">
        <dc:format>image/svg+xml</dc:format>
        <dc:type
           rdf:resource="http://purl.org/dc/dcmitype/StillImage" />
      </cc:Work>
    </rdf:RDF>
  </metadata>
  <g
     inkscape:label="11-Sollution"
     inkscape:groupmode="layer"
     id="layer1">
    <path
       style="opacity:1;fill:#ffffff;fill-opacity:1;stroke:none;stroke-width:2;stroke-linecap:round;stroke-linejoin:round;stroke-miterlimit:4;stroke-dasharray:none;stroke-dashoffset:0;stroke-opacity:1"
       d="M 31.972656,0 C 31.418355,0.02471811 30.995981,0.46076563 30.994141,0.99609375 V 4.0527344 c 0.0019,0.5525968 0.45313,1.0002257 1.005859,0.9980468 0.549849,-0.00189 0.994204,-0.4483319 0.996094,-0.9980468 V 0.99609375 C 32.994204,0.44637924 32.547908,0.00189128 31.972656,0 Z m -8.18164,1.8242188 c -0.240458,0.01149 -0.478803,0.1108551 -0.66211,0.2949218 -0.392781,0.3909612 -0.392781,1.0250549 0,1.4160156 l 2.158203,2.1582032 c 0.391056,0.3926849 1.02496,0.3926849 1.416016,0 0.387862,-0.3901142 0.387862,-1.0219956 0,-1.4121094 L 24.548828,2.1191406 C 24.341082,1.9105266 24.063535,1.8111805 23.791016,1.8242188 Z m 16.36914,0.00586 C 39.894947,1.8283377 39.639993,1.933014 39.451172,2.1191406 L 37.294922,4.28125 c -0.387863,0.3901138 -0.387863,1.0219949 0,1.4121094 0.391052,0.3926861 1.026912,0.3926861 1.417969,0 l 2.15625,-2.1582032 c 0.392783,-0.3909611 0.392783,-1.0250541 0,-1.4160156 C 40.680315,1.933014 40.425317,1.8283373 40.160156,1.8300781 Z m 18.855469,6.1582031 c -0.552707,-0.00212 -1.001952,0.4435197 -1.003906,0.9960938 v 1.048828 c -2.75257,0 -6.867424,-1.0488284 -12.009766,-1.048828 -2.34034,0 -4.427607,1.134037 -6.107422,2.466797 C 38.588096,12.487695 37.525742,13.648938 36.763672,14.625 35.282921,14.207382 33.684006,13.992185 32,13.992188 c -2.81023,0 -5.380214,0.615982 -7.580078,1.724609 -1.738147,-1.457944 -3.932734,-2.730469 -6.431641,-2.730469 -5.142345,0 -9.2474253,1.050781 -11.9999998,1.050781 V 12.986328 C 5.9863261,12.433754 5.5370814,11.988111 4.984375,11.990234 H 0.99609375 C 0.44624203,11.992135 0.00189052,12.436613 0,12.986328 v 16.007813 c 0.00189052,0.549717 0.44624203,0.994204 0.99609375,0.996093 H 4.984375 c 0.5527064,0.0021 1.0019511,-0.443519 1.0039062,-0.996093 0.4895219,0 1.7480847,0.618434 3.2871094,1.388671 1.5390254,0.770239 3.4501444,1.607422 5.7011714,1.607422 h 1.154297 c 0.557969,4.135378 2.697645,7.106145 4.650391,9.453125 1.042948,1.253507 2.042489,2.348338 2.734375,3.330079 0.650199,0.936978 1.015647,1.719941 1.046875,2.46875 -0.356708,0.492642 -0.568359,1.105902 -0.568359,1.753906 0,1.293192 0.841039,2.405527 2,2.822265 V 57 c 0,1.293872 0.843996,2.407998 2.003906,2.824219 v 1.177734 C 27.998047,62.647004 29.356494,64 31.001953,64 h 1.994141 c 1.645459,0 3.005859,-1.352996 3.005859,-2.998047 V 59.824219 C 37.161716,59.407915 38.003906,58.293763 38.003906,57 v -5.181641 c 1.159858,-0.416254 2,-1.528423 2,-2.822265 0,-0.647622 -0.216264,-1.245797 -0.572265,-1.738282 0.03326,-0.783832 0.433164,-1.625673 1.15039,-2.617187 0.749666,-1.036354 1.811868,-2.189854 2.908203,-3.53125 2.192663,-2.682799 4.511719,-6.19821 4.511719,-11.236328 0,-0.637145 -0.04369,-1.263376 -0.109375,-1.882813 h 1.128906 c 2.25103,0 4.156293,-0.831325 5.695313,-1.601562 1.539027,-0.770237 2.805405,-1.396487 3.294922,-1.396484 0.002,0.552572 0.451199,1.000167 1.003906,0.998046 h 3.980469 C 63.548827,25.992434 63.998099,25.544784 64,24.992188 V 8.984375 C 63.998099,8.4317778 63.548823,7.9861027 62.996094,7.9882812 Z M 46.001953,10.986328 c 4.862222,0 8.7881,1.046876 12.009766,1.046875 v 10.958985 c -1.497147,0 -2.728712,0.871483 -4.1875,1.601562 -1.458784,0.730079 -3.051933,1.396483 -4.802735,1.396484 -1.986644,-8e-6 -5.01545,1.1e-5 -5.515625,0 -0.848681,0 -1.498046,-0.679651 -1.498047,-1.5 0,-0.832225 0.649373,-1.498046 1.498047,-1.498046 h 3.515625 c 0.552737,-0.0019 0.998271,-0.453263 0.996094,-1.00586 -0.0019,-0.549714 -0.446244,-0.994202 -0.996094,-0.996094 h -1.560546 c -1.592363,-2.458236 -3.881582,-4.44226 -6.689454,-5.65625 0.636662,-0.752417 1.443952,-1.579607 2.365235,-2.310546 1.471884,-1.167793 3.189501,-2.037107 4.865234,-2.03711 z m -28.013672,4.001953 c 1.577773,-5e-6 3.189593,0.765949 4.59961,1.824219 -2.838875,1.931311 -4.920753,4.85498 -5.888672,8.173828 l -0.703125,0.0059 c -0.552731,-0.0022 -1.002007,0.445449 -1.003906,0.998046 -0.0022,0.555481 0.448288,1.006098 1.003906,1.003907 h 3.501953 c 0.848684,0 1.498047,0.649563 1.498047,1.498047 0,0.848469 -0.649363,1.498046 -1.498047,1.498046 h -2.505859 -2.015626 c -1.750799,0 -3.341994,-0.664451 -4.800781,-1.394531 C 8.7169989,27.865585 7.4854328,26.994141 5.9882812,26.994141 V 16.037109 c 3.2216699,0 7.1377738,-1.048823 11.9999998,-1.048828 z m 13.00586,1.035157 v 4.099609 c -0.348359,-0.09831 -0.628562,-0.135974 -0.996094,-0.136719 -2.198282,0 -4.003906,1.80418 -4.003906,4.001953 0,2.197772 1.805623,4.00195 4.003906,4.001953 0.368277,-5.04e-4 0.613961,-0.03519 0.996094,-0.11914 v 2.11914 h -8.339844 c 0.218158,-0.455247 0.341797,-0.962722 0.341797,-1.498046 0,-1.922114 -1.575464,-3.500003 -3.498047,-3.5 h -0.691406 c 1.73134,-5.005486 6.099674,-8.611116 12.1875,-8.96875 z m 2.001953,0 c 4.315498,0.25265 7.755483,2.144224 10.023437,5 -1.695624,0.234376 -3.015625,1.679213 -3.015625,3.466796 0,1.981188 1.57938,3.499999 3.501953,3.5 0.215131,5e-6 1.506439,2e-6 2.373047,0 0.0774,0.616591 0.129891,1.288396 0.128906,1.988282 l -4.865234,0.01172 c -0.866423,-0.0013 -1.324985,1.023477 -0.746094,1.667969 0.328101,0.364649 0.50703,0.841819 0.509766,1.332031 0,1.116624 -0.885031,2 -2.001953,2 -1.114856,0 -1.988922,-0.881427 -1.992188,-1.998046 0.0024,-0.493083 0.180226,-0.969192 0.507813,-1.333985 0.578896,-0.644477 0.122267,-1.669235 -0.744141,-1.667969 h -3.679687 v -3.763672 c 0.0013,-0.866209 -1.025275,-1.324844 -1.669922,-0.746093 -0.366652,0.329087 -0.835305,0.509091 -1.328125,0.509765 -1.116896,0 -2,-0.885309 -2,-2.001953 0,-1.116646 0.883104,-2.001953 2,-2.001953 0.492888,0.001 0.961605,0.187982 1.328125,0.517578 0.644647,0.57875 1.671188,0.120116 1.669922,-0.746094 z m -14.84375,15.966796 h 12.841797 v 2.126954 c -0.349078,-0.09846 -0.627821,-0.122518 -0.996094,-0.123047 -2.198283,0 -4.003906,1.802229 -4.003906,4 0,2.197772 1.805624,4.003906 4.003906,4.003906 0.367521,-7.45e-4 0.614736,-0.03365 0.996094,-0.130859 v 4.130859 H 27 c -0.209344,0 -0.41339,0.02269 -0.611328,0.06445 -0.241633,-0.867708 -0.700341,-1.67256 -1.242188,-2.441406 -0.803105,-1.139558 -1.816191,-2.247838 -2.822265,-3.457032 -1.836925,-2.20778 -3.635398,-4.707491 -4.171875,-8.173828 z m 14.84375,0 h 2.021484 c -0.08387,0.37183 -0.108884,0.631478 -0.109375,1 0,2.19775 1.797776,4 3.996094,4 2.198305,0 4.003906,-1.802254 4.003906,-4 -7.48e-4,-0.368315 -0.02835,-0.650964 -0.126953,-1 h 3.068359 c -0.508951,3.303292 -2.167624,5.717565 -3.910156,7.84961 -1.047538,1.281683 -2.124182,2.440506 -2.982422,3.626953 -0.590037,0.815682 -1.091955,1.670211 -1.347656,2.59375 -0.19714,-0.04127 -0.400889,-0.0625 -0.609375,-0.0625 h -4.003906 v -5.773438 c 0.0013,-0.866211 -1.025275,-1.324845 -1.669922,-0.746093 -0.366501,0.329612 -0.835237,0.514623 -1.328125,0.515625 -1.116896,0 -2,-0.883358 -2,-2 0,-1.116645 0.883104,-2 2,-2 0.492824,6.72e-4 0.961458,0.180663 1.328125,0.509765 0.644647,0.578752 1.671188,0.120116 1.669922,-0.746094 z"
       transform="scale(0.26458334)"
       id="path840"
       inkscape:connector-curvature="0"
       sodipodi:nodetypes="cccccccccccccccccccccccccccccccccccccccccccccccccccccccccccccccccccccccccccccccccccccccccccccccccccccccccccccccccccccccccccccccccccccccccccccccccccccccccccccccccccccccccc" />
  </g>
</svg>
